<svg width="140" height="170" viewBox="0 0 140 170" fill="none" xmlns="http://www.w3.org/2000/svg">
<path d="M6.25 30H23.25M6.25 48.5H22.25M6.25 66H22.25M6.25 83.5H22.25M6.25 101H22.25M6.25 120H22.25M6.25 138.5H22.25M44.75 6V85.5M44.75 118V163M63.25 129.5H107.25M39.75 163H116.75C126.139 163 133.75 155.389 133.75 146V23C133.75 13.6112 126.139 6 116.75 6H39.75C30.3612 6 22.75 13.6112 22.75 23V146C22.75 155.389 30.3612 163 39.75 163Z" stroke="black" stroke-width="4" stroke-linecap="round"/>
<path d="M40.6556 94.9091V108H38.8403L32.1862 98.3991H32.0647V108H30.0896V94.9091H31.9177L38.5782 104.523H38.6997V94.9091H40.6556ZM54.9083 101.455C54.9083 102.852 54.6526 104.054 54.1412 105.06C53.6299 106.061 52.9289 106.832 52.0383 107.374C51.1519 107.911 50.1441 108.179 49.0148 108.179C47.8813 108.179 46.8692 107.911 45.9786 107.374C45.0922 106.832 44.3934 106.059 43.882 105.053C43.3706 104.048 43.115 102.848 43.115 101.455C43.115 100.057 43.3706 98.8572 43.882 97.8558C44.3934 96.8501 45.0922 96.0788 45.9786 95.5419C46.8692 95.0007 47.8813 94.7301 49.0148 94.7301C50.1441 94.7301 51.1519 95.0007 52.0383 95.5419C52.9289 96.0788 53.6299 96.8501 54.1412 97.8558C54.6526 98.8572 54.9083 100.057 54.9083 101.455ZM52.9523 101.455C52.9523 100.389 52.7797 99.4922 52.4346 98.7635C52.0937 98.0305 51.6249 97.4766 51.0283 97.1016C50.436 96.7223 49.7648 96.5327 49.0148 96.5327C48.2606 96.5327 47.5873 96.7223 46.9949 97.1016C46.4026 97.4766 45.9339 98.0305 45.5887 98.7635C45.2478 99.4922 45.0773 100.389 45.0773 101.455C45.0773 102.52 45.2478 103.419 45.5887 104.152C45.9339 104.881 46.4026 105.435 46.9949 105.814C47.5873 106.189 48.2606 106.376 49.0148 106.376C49.7648 106.376 50.436 106.189 51.0283 105.814C51.6249 105.435 52.0937 104.881 52.4346 104.152C52.7797 103.419 52.9523 102.52 52.9523 101.455ZM56.1627 96.6094V94.9091H66.2941V96.6094H62.2096V108H60.2409V96.6094H56.1627ZM68.5329 108V94.9091H76.7403V96.6094H70.5081V100.598H76.3121V102.292H70.5081V106.3H76.817V108H68.5329ZM79.3786 108V94.9091H81.3538V100.598H87.8801V94.9091H89.8616V108H87.8801V102.292H81.3538V108H79.3786ZM101.156 94.9091H103.138V103.519C103.138 104.435 102.923 105.247 102.492 105.955C102.062 106.658 101.457 107.212 100.677 107.616C99.8971 108.017 98.983 108.217 97.9347 108.217C96.8907 108.217 95.9788 108.017 95.199 107.616C94.4191 107.212 93.814 106.658 93.3836 105.955C92.9532 105.247 92.738 104.435 92.738 103.519V94.9091H94.7132V103.359C94.7132 103.952 94.8431 104.478 95.1031 104.938C95.3673 105.398 95.7401 105.761 96.2217 106.025C96.7032 106.285 97.2742 106.415 97.9347 106.415C98.5995 106.415 99.1727 106.285 99.6542 106.025C100.14 105.761 100.511 105.398 100.766 104.938C101.026 104.478 101.156 103.952 101.156 103.359V94.9091ZM106.009 108V94.9091H110.804C111.733 94.9091 112.502 95.0625 113.111 95.3693C113.72 95.6719 114.176 96.0831 114.479 96.603C114.782 97.1186 114.933 97.7003 114.933 98.348C114.933 98.8935 114.833 99.3537 114.632 99.7287C114.432 100.099 114.164 100.398 113.827 100.624C113.495 100.845 113.128 101.007 112.728 101.109V101.237C113.162 101.259 113.586 101.399 114 101.659C114.417 101.915 114.762 102.279 115.035 102.752C115.308 103.225 115.444 103.8 115.444 104.478C115.444 105.147 115.286 105.748 114.971 106.281C114.66 106.809 114.179 107.229 113.527 107.54C112.875 107.847 112.041 108 111.027 108H106.009ZM107.985 106.306H110.835C111.782 106.306 112.459 106.123 112.868 105.756C113.277 105.39 113.482 104.932 113.482 104.382C113.482 103.969 113.377 103.589 113.169 103.244C112.96 102.899 112.661 102.624 112.274 102.42C111.89 102.215 111.434 102.113 110.906 102.113H107.985V106.306ZM107.985 100.572H110.631C111.074 100.572 111.473 100.487 111.826 100.317C112.184 100.146 112.468 99.9077 112.676 99.6009C112.889 99.2898 112.996 98.9233 112.996 98.5014C112.996 97.9602 112.806 97.5064 112.427 97.1399C112.048 96.7734 111.466 96.5902 110.682 96.5902H107.985V100.572Z" fill="black"/>
</svg>
